{"title":"Misconduct.2016.BRRip.480p.x264.AAC-VYTO [P2PDL]","uid":14239099,"size":401199118,"categoryP":"video","categoryS":"movies","magnet":"?xt=urn:btih:215078efe21ea2b1f53d11d741e0e914a44e86e9&amp;dn=Misconduct.2016.BRRip.480p.x264.AAC-VYTO+%5BP2PDL%5D&amp;tr=udp%3A%2F%2Ftracker.leechers-paradise.org%3A6969&amp;tr=udp%3A%2F%2Fzer0day.ch%3A1337&amp;tr=udp%3A%2F%2Fopen.demonii.com%3A1337&amp;tr=udp%3A%2F%2Ftracker.coppersurfer.tk%3A6969&amp;tr=udp%3A%2F%2Fexodus.desync.com%3A6969","seeders":1,"leechers":1,"uploader":"VYTOP2PDL","files":7,"time":1460125037,"description":"____    ____ ____    ____ .___________.  ______   \r\n     /   /      /   / |           | /  __    \r\n    /   /      /   /  `---|  |----`|  |  |  | \r\n        /     _    _/       |  |     |  |  |  | \r\n       /        |  |         |  |     |  `--'  | \r\n    __/         |__|         |__|      ______/  \r\n                                                  \r\nPresenting Small Encodes with quality for years!\r\n                                                                                                   \r\n                                                                                                   \r\n\r\n\r\nMisconduct.2016.BRRip.480p.x264.AAC-VYTO\r\n\r\n\r\nGenre: Drama, Thriller  \nhttp://www.imdb.com/title/tt3658772/\r\n\r\n\r\nFormat                                   : MPEG-4\r\nFile size                                : 376 MiB\r\nDuration                                 : 1h 45mn\r\nOverall bit rate                         : 497 Kbps\r\n\r\nVideo\r\nFormat                                   : AVC\r\nBit rate                                 : 454 Kbps\r\nWidth                                    : 720 pixels\r\nHeight                                   : 304 pixels\r\nDisplay aspect ratio                     : 2.35:1\r\nFrame rate mode                          : Constant\r\nFrame rate                               : 23.976 fps\r\nBit depth                                : 8 bits\r\nStream size                              : 344 MiB (91%)\r\nWriting library                          : x264 \r\n\r\nAudio\r\nFormat                                   : AAC\r\nBit rate                                 : 40.0 Kbps\r\nChannel(s)                               : 2 channels\r\nChannel positions                        : Front: L R\r\nSampling rate                            : 48.0 KHz\r\nStream size                              : 30.3 MiB (8%)\r\nLanguage                                 : English\r\n\r\nSubtitle                                 : Yes (English)\r\n\r\nScreen Shots: (Click links to view)\r\n \nhttp://ititli.com/XMQ \nhttp://ititli.com/XMS \nhttp://ititli.com/XMZ \nhttp://ititli.com/XMc \nhttp://ititli.com/XMi \nhttp://ititli.com/XMp \nhttp://ititli.com/XMD \nhttp://ititli.com/XMa \nhttp://ititli.com/XMb \nhttp://ititli.com/XMz \nhttp://ititli.com/XMI \nhttp://ititli.com/XMO\r\n\r\n----------------------------------------------------------------------------------------------------\r\n\r\n\r\nEncoder Notes: Looking For Early Access To Anything You Can Provide WEBDL, DVDScr, DVDR, BluRay,\r\nDirect Audio, Music Releases and Seedboxes. If You Got anything to offer please contact us.\r\n\r\nSupport us by donating BC - 1FgwdzPsd1y25Gea8wP1qni35uGCtmkRCD\r\n\r\nFind us and join us!","torrent":{"xt":"urn:btih:215078efe21ea2b1f53d11d741e0e914a44e86e9","amp;dn":"Misconduct.2016.BRRip.480p.x264.AAC-VYTO+%5BP2PDL%5D","amp;tr":["udp%3A%2F%2Ftracker.leechers-paradise.org%3A6969","udp%3A%2F%2Fzer0day.ch%3A1337","udp%3A%2F%2Fopen.demonii.com%3A1337","udp%3A%2F%2Ftracker.coppersurfer.tk%3A6969","udp%3A%2F%2Fexodus.desync.com%3A6969"],"infoHash":"215078efe21ea2b1f53d11d741e0e914a44e86e9","infoHashBuffer":{"type":"Buffer","data":[33,80,120,239,226,30,162,177,245,61,17,215,65,224,233,20,164,78,134,233]},"announce":[],"urlList":[]}}